<svg width="160" height="25" viewBox="0 0 160 25" fill="none" xmlns="http://www.w3.org/2000/svg">
<path d="M9.14973 24.4014H13.4148V17.1353H18.6358L23.4523 24.4014H28.8204L23.0479 16.1812C26.1363 15.227 28.4527 12.5848 28.4527 9.24539C28.4527 4.73163 25.2907 1.35548 20.1432 1.35548H9.14973V13.0986H6.39216V17.1353H9.14973V24.4014ZM13.4148 5.39218H19.8123C22.8273 5.39218 24.1877 7.19035 24.1877 9.24539C24.1877 11.3004 22.8273 13.0986 19.8123 13.0986H13.4148V5.39218Z" fill="#121619"/>
<path d="M31.9617 15.0069C31.9617 20.328 36.0429 24.8784 42.2198 24.8784C48.3968 24.8784 52.478 20.328 52.478 15.0069V1.35548H48.213V14.0894C48.213 18.3096 45.5657 20.8417 42.2198 20.8417C38.9108 20.8417 36.2267 18.3096 36.2267 14.0894V1.35548H31.9617V15.0069Z" fill="#121619"/>
<path d="M76.6012 24.8784V1.35548H72.3362V15.4839L57.4453 0.878418V24.4014H61.7104V10.2729L76.6012 24.8784Z" fill="#121619"/>
<path d="M88.6239 24.8784L94.1759 11.5206L99.5071 24.8784L109.177 1.35548H104.655L99.5071 15.0069L94.1759 2.60319L88.9181 15.0069L83.6971 1.35548H79.2114L88.6239 24.8784Z" fill="#121619"/>
<path d="M107.093 24.4014H111.652L113.417 20.0711H123.197L124.962 24.4014H129.558L119.778 1.35548H110.218V5.172H115.513L107.093 24.4014ZM114.961 16.2546L118.344 7.99768L121.69 16.2546H114.961Z" fill="#121619"/>
<path d="M134.857 24.4014H139.122V14.2362L147.394 1.35548H142.467L136.989 10.3096L131.511 1.35548H126.584L134.857 14.2362V24.4014Z" fill="#121619"/>
<path d="M0 13.0302H12.7843V17.067H0V13.0302Z" fill="#121619"/>
<path d="M147.216 13.0302H160V17.067H147.216V13.0302Z" fill="#121619"/>
</svg>
